<?xml version="1.0" encoding="utf-8"?>
<!-- Generator: Adobe Illustrator 16.0.0, SVG Export Plug-In . SVG Version: 6.00 Build 0)  -->
<!DOCTYPE svg PUBLIC "-//W3C//DTD SVG 1.0//EN" "http://www.w3.org/TR/2001/REC-SVG-20010904/DTD/svg10.dtd">
<svg version="1.0" id="Layer_1" xmlns="http://www.w3.org/2000/svg" xmlns:xlink="http://www.w3.org/1999/xlink" x="0px" y="0px"
	 width="100px" height="100px" viewBox="0 0 100 100" enable-background="new 0 0 100 100" xml:space="preserve">
<path fill="#8BC34A" d="M20,10c-5.524,0-10,4.476-10,10c0,5.521,4.476,10,10,10s10-4.479,10-10C30,14.476,25.524,10,20,10z
	 M20,23.333c-1.843,0-3.333-1.49-3.333-3.333c0-1.841,1.49-3.333,3.333-3.333s3.333,1.492,3.333,3.333
	C23.333,21.843,21.843,23.333,20,23.333z"/>
<path fill="#8BC34A" d="M80,70c-4.35,0-8.012,2.793-9.389,6.667H59.389C58.012,72.793,54.35,70,50,70c-5.524,0-10,4.479-10,10
	s4.476,10,10,10c4.35,0,8.012-2.793,9.389-6.667h11.225C71.988,87.207,75.65,90,80,90c5.523,0,10-4.479,10-10S85.523,70,80,70z
	 M50,83.333c-1.843,0-3.333-1.49-3.333-3.333s1.49-3.333,3.333-3.333s3.333,1.49,3.333,3.333S51.843,83.333,50,83.333z M80,83.333
	c-1.843,0-3.333-1.49-3.333-3.333s1.49-3.333,3.333-3.333s3.333,1.49,3.333,3.333S81.843,83.333,80,83.333z"/>
<path fill="#263238" d="M83.333,40.612V29.388C87.21,28.009,90,24.346,90,20c0-5.524-4.477-10-10-10s-10,4.476-10,10
	c0,4.346,2.79,8.009,6.667,9.388v11.225c-0.326,0.115-0.646,0.238-0.954,0.387L59.001,24.284C59.622,22.981,60,21.54,60,20
	c0-5.524-4.477-10-10-10c-5.524,0-10,4.476-10,10c0,5.521,4.476,10,10,10c1.543,0,2.98-0.378,4.287-0.999l16.712,16.712
	C70.378,47.017,70,48.458,70,50c0,5.521,4.477,10,10,10s10-4.479,10-10C90,45.651,87.21,41.989,83.333,40.612z M50,23.333
	c-1.843,0-3.333-1.49-3.333-3.333c0-1.841,1.49-3.333,3.333-3.333s3.333,1.492,3.333,3.333C53.333,21.843,51.843,23.333,50,23.333z
	 M80,16.667c1.843,0,3.333,1.492,3.333,3.333c0,1.843-1.49,3.333-3.333,3.333s-3.333-1.49-3.333-3.333
	C76.667,18.159,78.157,16.667,80,16.667z M80,53.333c-1.843,0-3.333-1.49-3.333-3.333s1.49-3.333,3.333-3.333
	s3.333,1.49,3.333,3.333S81.843,53.333,80,53.333z"/>
<path fill="#263238" d="M50,40c-4.349,0-8.011,2.792-9.388,6.667H29.388C28.008,42.792,24.346,40,20,40c-5.524,0-10,4.476-10,10
	c0,5.523,4.476,10,10,10c4.346,0,8.008-2.79,9.388-6.667h11.225c0.117,0.326,0.24,0.646,0.387,0.954L24.284,70.999
	C22.981,70.378,21.54,70,20,70c-5.524,0-10,4.477-10,10s4.476,10,10,10c5.521,0,10-4.477,10-10c0-1.54-0.378-2.98-0.999-4.287
	l16.712-16.712C47.019,59.622,48.457,60,50,60c5.521,0,10-4.477,10-10C60,44.476,55.521,40,50,40z M20,53.333
	c-1.843,0-3.333-1.49-3.333-3.333s1.49-3.333,3.333-3.333s3.333,1.49,3.333,3.333S21.843,53.333,20,53.333z M20,83.333
	c-1.843,0-3.333-1.49-3.333-3.333s1.49-3.333,3.333-3.333s3.333,1.49,3.333,3.333S21.843,83.333,20,83.333z M50,53.333
	c-1.843,0-3.333-1.49-3.333-3.333s1.49-3.333,3.333-3.333s3.333,1.49,3.333,3.333S51.843,53.333,50,53.333z"/>
</svg>
